<svg width="152" height="80" fill="none" xmlns="http://www.w3.org/2000/svg"><path d="M4.28 48.194C.785 39.75-1.147 29.241 3.834 21.078c4.982-8.163 15.13-13.371 23.67-16.823C46.66-3.552 72.952-1.049 81.058 21.181c.207.564-.659.764-.882.225C68.85-6.327 33.558-.014 14.069 13.81c-26.046 18.48-.884 53.883 22.38 60.687 21.819 6.323 46.76-1.02 65.922-11.568 19.676-10.833 35.814-27.3 44.909-47.972a99.322 99.322 0 00-16.595 14.073 1.17 1.17 0 01-.809.295 1.183 1.183 0 01-1.151-1.127 1.18 1.18 0 01.274-.818 101.53 101.53 0 0119.411-15.986 1.185 1.185 0 011.166.02 1.199 1.199 0 01.596 1.008l.412 5.691a38.976 38.976 0 01.962 13.128 1.161 1.161 0 01-1.991.819 1.177 1.177 0 01-.342-.83 3486.3 3486.3 0 00-.935-12.717l-.053-.09c-17.212 36.3-59.754 63.519-100.324 60.402-19.042-1.552-36.13-12.575-43.62-30.632z" fill="url(#paint0_angular_240_698)"/><defs><radialGradient id="paint0_angular_240_698" cx="0" cy="0" r="1" gradientUnits="userSpaceOnUse" gradientTransform="matrix(73.22317 -32.14318 50.50012 115.04084 79.518 38.789)"><stop offset=".356" stop-color="#2871FF" stop-opacity="0"/><stop offset="1" stop-color="#2871FF"/></radialGradient></defs></svg>