<svg width="794" height="1452" fill="none" xmlns="http://www.w3.org/2000/svg"><path d="M0 1402c93.764 0 186.61-17.49 273.236-51.46 86.626-33.97 165.337-83.76 231.638-146.54 66.301-62.77 118.894-137.29 154.776-219.306C695.532 902.678 714 814.774 714 726c0-88.774-18.468-176.678-54.35-258.694-35.882-82.016-88.475-156.538-154.776-219.31-66.301-62.773-145.012-112.566-231.638-146.539C186.61 67.485 93.764 50 0 50" stroke="url(#paint0_linear_4_1523)" stroke-opacity=".2" stroke-width="100"/><path d="M27 1448.5c100.33 0 199.677-18.69 292.37-55 92.693-36.31 176.916-89.53 247.86-156.62 70.944-67.09 127.219-146.73 165.614-234.39C771.239 914.831 791 820.88 791 726s-19.761-188.831-58.156-276.489c-38.395-87.658-94.671-167.305-165.614-234.396-70.944-67.09-155.167-120.309-247.86-156.618C226.677 22.188 127.33 3.5 27 3.5" stroke="url(#paint1_linear_4_1523)" stroke-width="5"/><defs><linearGradient id="paint0_linear_4_1523" x1="714" y1="726" x2="0" y2="726" gradientUnits="userSpaceOnUse"><stop stop-color="#2871FF" stop-opacity=".23"/><stop offset=".355" stop-color="#9BBDFF" stop-opacity="0"/></linearGradient><linearGradient id="paint1_linear_4_1523" x1="791" y1="726" x2="27" y2="726" gradientUnits="userSpaceOnUse"><stop stop-color="#2871FF" stop-opacity=".23"/><stop offset=".355" stop-color="#9BBDFF" stop-opacity="0"/></linearGradient></defs></svg>