<svg width="88" height="65" fill="none" xmlns="http://www.w3.org/2000/svg"><path opacity=".1" d="M87.8 49.3c0 4.8-1.7 8.6-5.1 11.4-3.4 2.8-7.7 4.2-12.9 4.2-6.4 0-11.5-1.9-15.3-5.7-3.8-3.8-5.7-9.4-5.7-16.8 0-6.8 1-12.7 3-17.7 2.2-5 4.8-9.1 7.8-12.3 3-3.4 6.2-6.1 9.6-8.1 3.4-2 6.4-3.4 9-4.2l8.1 12c-4.8 2.2-8.7 5.1-11.7 8.7-3 3.6-4.3 8-3.9 13.2 5.2-1 9.3 0 12.3 3 3.2 3 4.8 7.1 4.8 12.3zm-48.6 0c0 4.8-1.7 8.6-5.1 11.4-3.4 2.8-7.7 4.2-12.9 4.2-6.4 0-11.5-1.9-15.3-5.7C2.1 55.4.2 49.8.2 42.4c0-6.8 1-12.7 3-17.7 2.2-5 4.8-9.1 7.8-12.3 3-3.4 6.2-6.1 9.6-8.1 3.4-2 6.4-3.4 9-4.2l8.1 12c-4.8 2.2-8.7 5.1-11.7 8.7-3 3.6-4.3 8-3.9 13.2 5.2-1 9.3 0 12.3 3 3.2 3 4.8 7.1 4.8 12.3z" fill="#fff"/></svg>