<svg width="88" height="66" fill="none" xmlns="http://www.w3.org/2000/svg"><path opacity=".1" d="M48.8 16.8c0-4.8 1.6-8.6 4.8-11.4C57 2.4 61.3.9 66.5.9 72.9.9 78 2.8 81.8 6.6c4 3.8 6 9.4 6 16.8 0 7-1.1 13-3.3 18-2.2 5-4.9 9.2-8.1 12.6-3 3.4-6.2 6.1-9.6 8.1-3.4 1.8-6.3 3.1-8.7 3.9l-8.4-12.3c4.8-2.2 8.7-5 11.7-8.4 3.2-3.6 4.7-8 4.5-13.2-5.2 1-9.4 0-12.6-3-3-3-4.5-7.1-4.5-12.3zm-48.6 0C.2 12 1.8 8.2 5 5.4 8.4 2.4 12.7.9 17.9.9c6.4 0 11.5 1.9 15.3 5.7 4 3.8 6 9.4 6 16.8 0 7-1.1 13-3.3 18-2.2 5-4.9 9.2-8.1 12.6-3 3.4-6.2 6.1-9.6 8.1-3.4 1.8-6.3 3.1-8.7 3.9L1.1 53.7c4.8-2.2 8.7-5 11.7-8.4 3.2-3.6 4.7-8 4.5-13.2-5.2 1-9.4 0-12.6-3-3-3-4.5-7.1-4.5-12.3z" fill="#fff"/></svg>